<?xml version="1.0" encoding="utf-8"?>
<!-- Generator: Adobe Illustrator 25.1.0, SVG Export Plug-In . SVG Version: 6.00 Build 0)  -->
<svg version="1.1" id="Layer_1" xmlns="http://www.w3.org/2000/svg" xmlns:xlink="http://www.w3.org/1999/xlink" x="0px" y="0px"
	 viewBox="0 0 416 48" style="enable-background:new 0 0 416 48;" xml:space="preserve">
<style type="text/css">
	.st0{fill:#1877F2;}
	.st1{fill:#FFFFFF;}
</style>
<rect class="st0" width="416" height="48"/>
<g>
	<path class="st1" d="M146.87,17.47h1.89v10.41h5.08v1.6h-6.97V17.47z"/>
	<path class="st1" d="M154.93,25c0-2.98,2-4.71,4.22-4.71c2.22,0,4.22,1.73,4.22,4.71s-2,4.69-4.22,4.69
		C156.94,29.69,154.93,27.98,154.93,25z M161.45,25c0-1.89-0.88-3.16-2.3-3.16c-1.4,0-2.28,1.27-2.28,3.16
		c0,1.91,0.88,3.16,2.28,3.16C160.57,28.16,161.45,26.91,161.45,25z"/>
	<path class="st1" d="M164.92,31.14c0-0.75,0.47-1.45,1.3-1.96v-0.08c-0.46-0.28-0.81-0.75-0.81-1.48c0-0.7,0.5-1.3,1.01-1.66V25.9
		c-0.62-0.47-1.19-1.32-1.19-2.4c0-2.02,1.61-3.21,3.47-3.21c0.5,0,0.96,0.1,1.3,0.23h3.18v1.4h-1.71c0.34,0.36,0.59,0.96,0.59,1.65
		c0,1.96-1.48,3.08-3.36,3.08c-0.41,0-0.86-0.1-1.25-0.28c-0.29,0.26-0.49,0.51-0.49,0.95c0,0.54,0.36,0.88,1.5,0.88h1.65
		c2.12,0,3.23,0.65,3.23,2.18c0,1.73-1.83,3.13-4.69,3.13C166.49,33.51,164.92,32.71,164.92,31.14z M171.53,30.67
		c0-0.75-0.59-0.98-1.68-0.98h-1.35c-0.42,0-0.83-0.05-1.21-0.13c-0.54,0.39-0.77,0.85-0.77,1.3c0,0.88,0.91,1.4,2.4,1.4
		C170.48,32.27,171.53,31.5,171.53,30.67z M170.4,23.5c0-1.19-0.75-1.89-1.69-1.89s-1.7,0.68-1.7,1.89c0,1.21,0.77,1.94,1.7,1.94
		S170.4,24.71,170.4,23.5z"/>
	<path class="st1" d="M174.77,17.72c0-0.67,0.47-1.11,1.16-1.11s1.17,0.44,1.17,1.11c0,0.68-0.49,1.12-1.17,1.12
		S174.77,18.4,174.77,17.72z M175,20.52h1.87v8.96H175V20.52z"/>
	<path class="st1" d="M179.68,20.52h1.53l0.15,1.24h0.05c0.83-0.8,1.74-1.47,2.97-1.47c1.91,0,2.75,1.27,2.75,3.55v5.64h-1.87v-5.41
		c0-1.55-0.46-2.17-1.52-2.17c-0.83,0-1.4,0.42-2.18,1.22v6.36h-1.87V20.52z"/>
	<path class="st1" d="M192.54,20.52h1.89l1.19,4.84c0.18,0.88,0.33,1.69,0.49,2.56h0.07c0.2-0.86,0.38-1.69,0.59-2.56l1.27-4.84
		h1.73l1.29,4.84c0.21,0.88,0.39,1.69,0.6,2.56h0.07c0.18-0.86,0.33-1.68,0.52-2.56l1.16-4.84h1.76l-2.31,8.96h-2.25l-1.14-4.43
		c-0.21-0.85-0.38-1.66-0.57-2.59h-0.08c-0.18,0.93-0.34,1.76-0.57,2.61l-1.09,4.42h-2.17L192.54,20.52z"/>
	<path class="st1" d="M206.78,17.72c0-0.67,0.47-1.11,1.16-1.11s1.17,0.44,1.17,1.11c0,0.68-0.49,1.12-1.17,1.12
		S206.78,18.4,206.78,17.72z M207.01,20.52h1.87v8.96h-1.87V20.52z"/>
	<path class="st1" d="M211.98,26.55v-4.53h-1.3v-1.4l1.4-0.1l0.21-2.48h1.56v2.48h2.33v1.5h-2.33v4.55c0,1.08,0.38,1.63,1.3,1.63
		c0.31,0,0.7-0.1,0.96-0.21l0.34,1.38c-0.5,0.16-1.11,0.33-1.76,0.33C212.68,29.69,211.98,28.44,211.98,26.55z"/>
	<path class="st1" d="M218.14,16.49h1.87v3.44l-0.08,1.78c0.78-0.75,1.68-1.42,2.9-1.42c1.91,0,2.75,1.27,2.75,3.55v5.64h-1.87
		v-5.41c0-1.55-0.46-2.17-1.52-2.17c-0.83,0-1.4,0.42-2.18,1.22v6.36h-1.87V16.49z"/>
	<path class="st1" d="M232.09,17.47h7.1v1.6h-5.21v3.67h4.43v1.58h-4.43v5.17h-1.89V17.47z"/>
	<path class="st1" d="M240,27.1c0-1.92,1.63-2.92,5.36-3.32c-0.02-1.04-0.39-1.96-1.71-1.96c-0.95,0-1.83,0.42-2.59,0.91l-0.7-1.27
		c0.93-0.59,2.18-1.17,3.62-1.17c2.23,0,3.26,1.42,3.26,3.8v5.39h-1.53l-0.15-1.03h-0.06c-0.82,0.7-1.78,1.24-2.85,1.24
		C241.09,29.69,240,28.68,240,27.1z M245.36,27.17v-2.2c-2.66,0.31-3.55,0.99-3.55,2c0,0.88,0.6,1.24,1.4,1.24
		C243.99,28.21,244.63,27.84,245.36,27.17z"/>
	<path class="st1" d="M249.25,25c0-2.98,2.07-4.71,4.43-4.71c1.14,0,1.97,0.46,2.62,1.03l-0.93,1.22c-0.49-0.44-0.99-0.7-1.6-0.7
		c-1.52,0-2.59,1.27-2.59,3.16c0,1.91,1.04,3.16,2.53,3.16c0.75,0,1.42-0.36,1.96-0.81l0.78,1.24c-0.83,0.73-1.89,1.11-2.92,1.11
		C251.11,29.69,249.25,27.98,249.25,25z"/>
	<path class="st1" d="M257.26,25c0-2.9,2-4.71,4.09-4.71c2.38,0,3.67,1.71,3.67,4.24c0,0.38-0.05,0.73-0.1,0.96h-5.82
		c0.15,1.71,1.22,2.74,2.77,2.74c0.8,0,1.48-0.24,2.13-0.67l0.65,1.19c-0.83,0.55-1.86,0.95-3.03,0.95
		C259.2,29.69,257.26,27.97,257.26,25z M263.39,24.19c0-1.53-0.7-2.43-2-2.43c-1.12,0-2.12,0.86-2.3,2.43H263.39z"/>
	<path class="st1" d="M268.8,28.55h-0.05l-0.18,0.93h-1.47V16.49h1.87v3.44l-0.07,1.53c0.77-0.67,1.73-1.17,2.67-1.17
		c2.26,0,3.55,1.81,3.55,4.56c0,3.08-1.84,4.84-3.86,4.84C270.46,29.69,269.56,29.27,268.8,28.55z M273.2,24.89
		c0-1.87-0.6-3.03-2.1-3.03c-0.7,0-1.38,0.36-2.12,1.09v4.38c0.68,0.6,1.38,0.81,1.94,0.81C272.22,28.15,273.2,26.99,273.2,24.89z"
		/>
	<path class="st1" d="M276.72,25c0-2.98,2-4.71,4.22-4.71c2.22,0,4.22,1.73,4.22,4.71s-2,4.69-4.22,4.69
		C278.72,29.69,276.72,27.98,276.72,25z M283.24,25c0-1.89-0.88-3.16-2.3-3.16c-1.4,0-2.28,1.27-2.28,3.16
		c0,1.91,0.88,3.16,2.28,3.16C282.36,28.16,283.24,26.91,283.24,25z"/>
	<path class="st1" d="M286.73,25c0-2.98,2-4.71,4.22-4.71c2.22,0,4.22,1.73,4.22,4.71s-2,4.69-4.22,4.69
		C288.73,29.69,286.73,27.98,286.73,25z M293.25,25c0-1.89-0.88-3.16-2.3-3.16c-1.4,0-2.28,1.27-2.28,3.16
		c0,1.91,0.88,3.16,2.28,3.16C292.37,28.16,293.25,26.91,293.25,25z"/>
	<path class="st1" d="M297.37,16.49h1.84v8.36h0.07l3.47-4.33h2.09l-3.03,3.65l3.37,5.31h-2.04l-2.43-4.06l-1.5,1.73v2.33h-1.84
		V16.49z"/>
</g>
<path class="st1" d="M138.83,24.03c0-7.75-6.27-14.03-14-14.03c-7.73,0-14,6.28-14,14.03c0,6.49,4.4,11.93,10.38,13.54V25.89h-2.4
	v-3.5l2.4-0.19v-1.48c0-3.76,1.73-6.65,6.25-6.65c1.38,0,2.6,0.32,3.4,0.61l-0.87,3.5c-0.61-0.26-1.31-0.39-1.89-0.39
	c-1.41,0-2.18,0.84-2.18,2.83v1.54h3.37v3.73h-3.37V38C133.14,37.44,138.83,31.41,138.83,24.03z"/>
</svg>
