<?xml version="1.0" encoding="utf-8"?>
<!-- Generator: Adobe Illustrator 25.1.0, SVG Export Plug-In . SVG Version: 6.00 Build 0)  -->
<svg version="1.1" id="Layer_1" xmlns="http://www.w3.org/2000/svg" xmlns:xlink="http://www.w3.org/1999/xlink" x="0px" y="0px"
	 viewBox="0 0 384 48" style="enable-background:new 0 0 384 48;" xml:space="preserve">
<style type="text/css">
	.st0{fill:#FEE500;}
	.st1{fill:#000000;}
	.st2{fill:#000000;}
</style>
<path class="st0" d="M382,48H2c-1.1,0-2-0.9-2-2V2c0-1.1,0.9-2,2-2h380c1.1,0,2,0.9,2,2v44C384,47.1,383.1,48,382,48z"/>
<g>
	<g>
		<g>
			<path class="st1" d="M124.12,13.34c-6.38,0-11.54,4.08-11.54,9.12c0,3.24,2.14,6.08,5.36,7.7l-1.09,4.06
				c-0.04,0.12-0.01,0.26,0.08,0.35c0.06,0.06,0.15,0.1,0.24,0.1c0.07,0,0.14-0.03,0.2-0.08l4.68-3.16c0.68,0.1,1.37,0.15,2.08,0.15
				c6.38,0,11.55-4.08,11.55-9.12C135.67,17.42,130.5,13.34,124.12,13.34z"/>
		</g>
	</g>
	<g>
		<path class="st2" d="M154,27.15h5.46v1.24h-6.98V16.88H154V27.15z"/>
		<path class="st2" d="M160.41,24.03c0-0.84,0.16-1.59,0.49-2.26c0.33-0.67,0.79-1.19,1.38-1.55c0.59-0.36,1.26-0.55,2.01-0.55
			c1.17,0,2.11,0.4,2.83,1.21c0.72,0.81,1.08,1.88,1.08,3.22v0.1c0,0.83-0.16,1.58-0.48,2.24c-0.32,0.66-0.77,1.18-1.37,1.55
			c-0.59,0.37-1.27,0.55-2.04,0.55c-1.16,0-2.1-0.4-2.82-1.21c-0.72-0.81-1.08-1.87-1.08-3.2V24.03z M161.88,24.21
			c0,0.95,0.22,1.71,0.66,2.29c0.44,0.57,1.03,0.86,1.77,0.86c0.74,0,1.33-0.29,1.77-0.87c0.44-0.58,0.66-1.4,0.66-2.45
			c0-0.94-0.22-1.7-0.67-2.28c-0.45-0.58-1.04-0.87-1.78-0.87c-0.72,0-1.3,0.29-1.75,0.86C162.1,22.31,161.88,23.14,161.88,24.21z"
			/>
		<path class="st2" d="M169.52,24.04c0-1.33,0.31-2.39,0.93-3.18c0.62-0.79,1.43-1.18,2.45-1.18c1.04,0,1.86,0.37,2.44,1.11
			l0.07-0.95h1.34v8.35c0,1.11-0.33,1.98-0.98,2.62c-0.66,0.64-1.54,0.96-2.65,0.96c-0.62,0-1.22-0.13-1.81-0.4
			c-0.59-0.26-1.04-0.62-1.35-1.08l0.76-0.88c0.63,0.77,1.4,1.16,2.3,1.16c0.71,0,1.27-0.2,1.66-0.6c0.4-0.4,0.6-0.96,0.6-1.69
			v-0.73c-0.59,0.68-1.38,1.01-2.4,1.01c-1,0-1.81-0.4-2.43-1.21C169.83,26.53,169.52,25.43,169.52,24.04z M170.99,24.21
			c0,0.96,0.2,1.72,0.59,2.27c0.39,0.55,0.95,0.83,1.66,0.83c0.92,0,1.6-0.42,2.03-1.26v-3.91c-0.45-0.82-1.12-1.23-2.02-1.23
			c-0.71,0-1.27,0.28-1.67,0.83S170.99,23.12,170.99,24.21z"/>
		<path class="st2" d="M178.8,17.56c0-0.24,0.07-0.44,0.22-0.6c0.14-0.16,0.36-0.25,0.64-0.25s0.5,0.08,0.65,0.25
			c0.15,0.16,0.22,0.36,0.22,0.6c0,0.24-0.07,0.43-0.22,0.59c-0.15,0.16-0.36,0.24-0.65,0.24s-0.5-0.08-0.64-0.24
			C178.88,18,178.8,17.8,178.8,17.56z M180.39,28.39h-1.46v-8.56h1.46V28.39z"/>
		<path class="st2" d="M183.95,19.83l0.05,1.08c0.65-0.82,1.51-1.23,2.56-1.23c1.81,0,2.72,1.02,2.74,3.06v5.65h-1.46v-5.66
			c-0.01-0.62-0.15-1.07-0.42-1.37c-0.28-0.3-0.71-0.44-1.29-0.44c-0.47,0-0.89,0.13-1.25,0.38c-0.36,0.25-0.64,0.59-0.84,1v6.1
			h-1.46v-8.56H183.95z"/>
		<path class="st2" d="M202.76,26.37l1.64-6.54h1.46l-2.49,8.56h-1.19l-2.08-6.48l-2.02,6.48h-1.19l-2.48-8.56h1.45l1.68,6.4
			l1.99-6.4h1.18L202.76,26.37z"/>
		<path class="st2" d="M207.2,17.56c0-0.24,0.07-0.44,0.22-0.6c0.14-0.16,0.36-0.25,0.64-0.25c0.28,0,0.5,0.08,0.65,0.25
			c0.15,0.16,0.22,0.36,0.22,0.6c0,0.24-0.07,0.43-0.22,0.59c-0.15,0.16-0.36,0.24-0.65,0.24c-0.28,0-0.5-0.08-0.64-0.24
			C207.27,18,207.2,17.8,207.2,17.56z M208.78,28.39h-1.46v-8.56h1.46V28.39z"/>
		<path class="st2" d="M212.94,17.76v2.07h1.6v1.13h-1.6v5.31c0,0.34,0.07,0.6,0.21,0.77c0.14,0.17,0.38,0.26,0.73,0.26
			c0.17,0,0.4-0.03,0.7-0.09v1.18c-0.38,0.1-0.76,0.16-1.12,0.16c-0.65,0-1.15-0.2-1.48-0.59c-0.33-0.4-0.5-0.96-0.5-1.68v-5.31
			h-1.56v-1.13h1.56v-2.07H212.94z"/>
		<path class="st2" d="M217.55,20.87c0.65-0.8,1.49-1.19,2.53-1.19c1.81,0,2.72,1.02,2.74,3.06v5.65h-1.46v-5.66
			c0-0.62-0.15-1.07-0.42-1.37c-0.28-0.3-0.71-0.44-1.29-0.44c-0.47,0-0.89,0.13-1.25,0.38c-0.36,0.25-0.64,0.59-0.84,1v6.1h-1.46
			V16.24h1.46V20.87z"/>
		<path class="st2" d="M231.85,23.04l-1.41,1.46v3.89h-1.52V16.88h1.52v5.69l5.12-5.69h1.83l-4.53,5.08l4.89,6.43h-1.82
			L231.85,23.04z"/>
		<path class="st2" d="M243.96,28.39c-0.08-0.17-0.15-0.47-0.21-0.9c-0.68,0.71-1.49,1.06-2.44,1.06c-0.84,0-1.54-0.24-2.08-0.72
			c-0.54-0.48-0.81-1.08-0.81-1.81c0-0.89,0.34-1.58,1.02-2.08c0.68-0.49,1.63-0.74,2.86-0.74h1.42v-0.67
			c0-0.51-0.15-0.92-0.46-1.22c-0.31-0.3-0.76-0.45-1.35-0.45c-0.52,0-0.96,0.13-1.31,0.4c-0.35,0.26-0.53,0.58-0.53,0.96h-1.47
			c0-0.43,0.15-0.84,0.46-1.24c0.3-0.4,0.71-0.71,1.23-0.94c0.52-0.23,1.09-0.35,1.71-0.35c0.99,0,1.76,0.25,2.32,0.74
			c0.56,0.49,0.85,1.17,0.87,2.04v3.94c0,0.79,0.1,1.41,0.3,1.87v0.13H243.96z M241.54,27.27c0.46,0,0.89-0.12,1.3-0.36
			c0.41-0.24,0.71-0.55,0.89-0.93v-1.76h-1.15c-1.79,0-2.69,0.52-2.69,1.57c0,0.46,0.15,0.82,0.46,1.08
			C240.66,27.14,241.06,27.27,241.54,27.27z"/>
		<path class="st2" d="M249.72,24.43l-0.92,0.96v3h-1.46V16.24h1.46v7.35l0.78-0.94l2.66-2.82h1.78l-3.33,3.57l3.72,4.98h-1.72
			L249.72,24.43z"/>
		<path class="st2" d="M260.66,28.39c-0.08-0.17-0.15-0.47-0.21-0.9c-0.68,0.71-1.49,1.06-2.44,1.06c-0.84,0-1.54-0.24-2.08-0.72
			c-0.54-0.48-0.81-1.08-0.81-1.81c0-0.89,0.34-1.58,1.02-2.08c0.68-0.49,1.63-0.74,2.86-0.74h1.42v-0.67
			c0-0.51-0.15-0.92-0.46-1.22c-0.31-0.3-0.76-0.45-1.35-0.45c-0.52,0-0.96,0.13-1.31,0.4c-0.35,0.26-0.53,0.58-0.53,0.96h-1.47
			c0-0.43,0.15-0.84,0.46-1.24c0.3-0.4,0.71-0.71,1.23-0.94c0.52-0.23,1.09-0.35,1.71-0.35c0.99,0,1.76,0.25,2.32,0.74
			c0.56,0.49,0.85,1.17,0.87,2.04v3.94c0,0.79,0.1,1.41,0.3,1.87v0.13H260.66z M258.23,27.27c0.46,0,0.89-0.12,1.3-0.36
			c0.41-0.24,0.71-0.55,0.89-0.93v-1.76h-1.15c-1.79,0-2.69,0.52-2.69,1.57c0,0.46,0.15,0.82,0.46,1.08
			C257.36,27.14,257.75,27.27,258.23,27.27z"/>
		<path class="st2" d="M263.63,24.03c0-0.84,0.16-1.59,0.49-2.26c0.33-0.67,0.79-1.19,1.38-1.55c0.59-0.36,1.26-0.55,2.01-0.55
			c1.17,0,2.11,0.4,2.83,1.21c0.72,0.81,1.08,1.88,1.08,3.22v0.1c0,0.83-0.16,1.58-0.48,2.24c-0.32,0.66-0.77,1.18-1.37,1.55
			c-0.59,0.37-1.27,0.55-2.04,0.55c-1.16,0-2.1-0.4-2.82-1.21c-0.72-0.81-1.08-1.87-1.08-3.2V24.03z M265.11,24.21
			c0,0.95,0.22,1.71,0.66,2.29c0.44,0.57,1.03,0.86,1.77,0.86c0.74,0,1.33-0.29,1.77-0.87c0.44-0.58,0.66-1.4,0.66-2.45
			c0-0.94-0.22-1.7-0.67-2.28c-0.45-0.58-1.04-0.87-1.78-0.87c-0.72,0-1.3,0.29-1.75,0.86C265.33,22.31,265.11,23.14,265.11,24.21z"
			/>
	</g>
</g>
</svg>
