<svg xmlns="http://www.w3.org/2000/svg" width="78" height="78" viewBox="0 0 78 78">
    <defs>
        <filter id="eexaafpa8a">
            <feColorMatrix in="SourceGraphic" values="0 0 0 0 1.000000 0 0 0 0 1.000000 0 0 0 0 1.000000 0 0 0 1.000000 0"/>
        </filter>
    </defs>
    <g fill="none" fill-rule="evenodd">
        <g filter="url(#eexaafpa8a)" transform="translate(-489 -106)">
            <g>
                <path d="M0 0L78 0 78 78 0 78z" transform="translate(489 106)"/>
                <path fill="#B8B8B8" fill-rule="nonzero" d="M39.262 6.282c-17.916 0-32.457 14.54-32.457 32.456 0 17.916 14.54 32.457 32.457 32.457 17.916 0 32.456-14.54 32.456-32.457 0-17.916-14.54-32.456-32.456-32.456zm0 9.737c5.388 0 9.737 4.349 9.737 9.737 0 5.387-4.35 9.737-9.737 9.737-5.388 0-9.737-4.35-9.737-9.737 0-5.388 4.349-9.737 9.737-9.737zm0 46.088c-8.114 0-15.287-4.155-19.474-10.451.097-6.459 12.982-9.997 19.474-9.997 6.459 0 19.376 3.538 19.474 9.997-4.187 6.296-11.36 10.45-19.474 10.45z" transform="translate(489 106)"/>
            </g>
        </g>
    </g>
</svg>
