<svg xmlns="http://www.w3.org/2000/svg" width="48" height="31" viewBox="0 0 48 31">
    <defs>
        <filter id="uj72cc9m5a">
            <feColorMatrix in="SourceGraphic" values="0 0 0 0 1.000000 0 0 0 0 1.000000 0 0 0 0 1.000000 0 0 0 1.000000 0"/>
        </filter>
    </defs>
    <g fill="none" fill-rule="evenodd">
        <g filter="url(#uj72cc9m5a)" transform="translate(-1143 -158)">
            <g fill="#00215B">
                <path d="M21.27 15.737c-1.801-4.254-6.214-7.146-11.243-6.69C4.659 9.534.37 13.922.024 19.27-.393 25.675 4.71 31 11.066 31h3.487c1.232 0 2.23-.992 2.23-2.217 0-1.224-.998-2.217-2.23-2.217h-3.487c-3.754 0-6.777-3.113-6.598-6.884.154-3.233 2.752-5.936 5.996-6.222 2.99-.263 5.608 1.457 6.684 3.984.352.83 1.176 1.363 2.083 1.363 1.59 0 2.655-1.613 2.038-3.07" transform="translate(1143 158)"/>
                <path d="M47.98 19.478c-.32-5.329-4.652-9.708-10.06-10.164-.842-.07-1.664-.042-2.46.065-.073-.536-.181-1.078-.336-1.625-.996-3.525-3.829-6.323-7.41-7.313-4.858-1.342-9.418.501-12.013 3.884-.65.849-.446 2.062.433 2.679 1.068.749 2.549.593 3.406-.383 1.579-1.796 4.14-2.73 6.866-1.985 2.092.572 3.772 2.173 4.398 4.218.617 2.013.266 3.946-.702 5.458-.623.972-.315 2.262.636 2.93 1.04.728 2.478.429 3.155-.636.527-.83.94-1.735 1.225-2.694.865-.248 1.803-.329 2.777-.195 2.94.402 5.282 2.773 5.611 5.675.443 3.915-2.66 7.23-6.55 7.23h-13.02c-1.228 0-2.224.979-2.224 2.188s.997 2.189 2.226 2.188l12.443-.012c.19.01.382.014.575.014 6.321 0 11.402-5.223 11.024-11.522" transform="translate(1143 158)"/>
            </g>
        </g>
    </g>
</svg>
