<?xml version="1.0" encoding="utf-8"?>
<!-- Generator: Adobe Illustrator 25.1.0, SVG Export Plug-In . SVG Version: 6.00 Build 0)  -->
<svg version="1.1" id="Layer_1" xmlns="http://www.w3.org/2000/svg" xmlns:xlink="http://www.w3.org/1999/xlink" x="0px" y="0px"
	 viewBox="0 0 23 15" style="enable-background:new 0 0 23 15;" xml:space="preserve">
<style type="text/css">
	.st0{fill:#D28313;}
</style>
<g>
	<path class="st0" d="M10.53,7.71c-0.89-2.03-3.07-3.41-5.56-3.2C2.31,4.74,0.18,6.84,0.01,9.39C-0.19,12.46,2.33,15,5.48,15H7.2
		c0.61,0,1.1-0.47,1.1-1.06c0-0.59-0.49-1.06-1.1-1.06H5.48c-1.86,0-3.35-1.49-3.27-3.29c0.08-1.55,1.36-2.84,2.97-2.97
		c1.48-0.13,2.78,0.7,3.31,1.9c0.17,0.4,0.58,0.65,1.03,0.65C10.3,9.17,10.83,8.4,10.53,7.71z"/>
	<path class="st0" d="M22.99,9.43c-0.16-2.58-2.31-4.7-4.99-4.92c-0.42-0.03-0.83-0.02-1.22,0.03c-0.04-0.26-0.09-0.52-0.17-0.79
		c-0.49-1.71-1.9-3.06-3.67-3.54c-2.41-0.65-4.67,0.24-5.96,1.88c-0.32,0.41-0.22,1,0.21,1.3C7.73,3.75,8.46,3.68,8.89,3.2
		c0.78-0.87,2.05-1.32,3.4-0.96c1.04,0.28,1.87,1.05,2.18,2.04c0.31,0.97,0.13,1.91-0.35,2.64c-0.31,0.47-0.16,1.1,0.32,1.42
		C14.96,8.7,15.67,8.55,16,8.04c0.26-0.4,0.47-0.84,0.61-1.3c0.43-0.12,0.89-0.16,1.38-0.09c1.46,0.19,2.62,1.34,2.78,2.75
		c0.22,1.89-1.32,3.5-3.25,3.5h-6.46c-0.61,0-1.1,0.47-1.1,1.06v0c0,0.59,0.49,1.06,1.1,1.06l6.17-0.01c0.09,0,0.19,0.01,0.28,0.01
		C20.66,15,23.18,12.47,22.99,9.43z"/>
</g>
</svg>
