<svg xmlns="http://www.w3.org/2000/svg" width="220" height="78" viewBox="0 0 220 78">
    <defs>
        <filter id="67st5tkuia">
            <feColorMatrix in="SourceGraphic" values="0 0 0 0 0.082353 0 0 0 0 0.070588 0 0 0 0 0.070588 0 0 0 1.000000 0"/>
        </filter>
    </defs>
    <g fill="none" fill-rule="evenodd">
        <g>
            <g>
                <g fill="#00215B" filter="url(#67st5tkuia)" transform="translate(-834 -342) translate(834 342)">
                    <path d="M51.57 39.842C47.204 29.21 36.505 21.978 24.311 23.118 11.295 24.335.901 35.305.058 48.673-.952 64.688 11.423 78 26.83 78h8.454c2.986 0 5.408-2.48 5.408-5.542s-2.422-5.543-5.408-5.543h-8.454c-9.103 0-16.432-7.783-15.998-17.21.372-8.084 6.672-14.84 14.538-15.554 7.25-.658 13.598 3.64 16.205 9.958.855 2.074 2.853 3.408 5.05 3.408 3.855 0 6.439-4.033 4.944-7.675"/>
                    <path d="M116.95 49.01c-.791-13.41-11.529-24.428-24.933-25.574-2.088-.178-4.125-.107-6.1.163-.179-1.35-.447-2.713-.83-4.089-2.47-8.868-9.49-15.91-18.366-18.4C54.68-2.268 43.38 2.37 36.946 10.883c-1.612 2.135-1.105 5.188 1.074 6.74 2.647 1.884 6.316 1.491 8.441-.964 3.913-4.518 10.26-6.868 17.018-4.993 5.184 1.439 9.349 5.467 10.901 10.613 1.528 5.064.659 9.926-1.741 13.73-1.545 2.447-.78 5.694 1.577 7.373 2.577 1.834 6.142 1.08 7.819-1.599 1.306-2.087 2.33-4.365 3.036-6.779 2.145-.624 4.468-.826 6.884-.491 7.285 1.011 13.092 6.979 13.907 14.28 1.099 9.85-6.592 18.19-16.235 18.19H57.359c-3.046 0-5.515 2.465-5.515 5.506 0 3.042 2.473 5.508 5.52 5.506l30.838-.031c.472.024.947.036 1.425.036 15.667 0 28.26-13.143 27.324-28.99"/>
                </g>
                <text fill="#151212" font-family="CookieRunOTF-Regular, CookieRunOTF" font-size="50" transform="translate(-834 -342) translate(834 342)">
                    <tspan x="125" y="61">책방</tspan>
                </text>
            </g>
        </g>
    </g>
</svg>
