<?xml version="1.0" encoding="utf-8"?>
<!-- Generator: Adobe Illustrator 25.1.0, SVG Export Plug-In . SVG Version: 6.00 Build 0)  -->
<svg version="1.1" id="Layer_1" xmlns="http://www.w3.org/2000/svg" xmlns:xlink="http://www.w3.org/1999/xlink" x="0px" y="0px"
	 viewBox="0 0 227.2 78" style="enable-background:new 0 0 227.2 78;" xml:space="preserve">
<style type="text/css">
	.st0{fill:#202020;}
</style>
<g>
	<g>
		<path class="st0" d="M53.54,40.07C49.01,29.5,37.9,22.32,25.24,23.45C11.73,24.66,0.94,35.56,0.06,48.85
			C-0.99,64.77,11.86,78,27.86,78h8.78c3.1,0,5.61-2.47,5.61-5.51c0-3.04-2.51-5.51-5.61-5.51h-8.78c-9.45,0-17.06-7.74-16.61-17.11
			c0.39-8.03,6.93-14.75,15.09-15.46c7.53-0.65,14.12,3.62,16.83,9.9c0.89,2.06,2.96,3.39,5.24,3.39
			C52.41,47.7,55.09,43.69,53.54,40.07z"/>
		<path class="st0" d="M116.95,49.01c-0.81-13.41-11.73-24.43-25.38-25.57c-2.12-0.18-4.2-0.11-6.21,0.16
			c-0.18-1.35-0.46-2.71-0.85-4.09c-2.51-8.87-9.66-15.91-18.69-18.4c-12.26-3.38-23.75,1.26-30.3,9.77
			c-1.64,2.13-1.13,5.19,1.09,6.74c2.69,1.88,6.43,1.49,8.59-0.96c3.98-4.52,10.44-6.87,17.32-4.99c5.28,1.44,9.51,5.47,11.09,10.61
			c1.56,5.06,0.67,9.93-1.77,13.73c-1.57,2.45-0.79,5.69,1.61,7.37c2.62,1.83,6.25,1.08,7.96-1.6c1.33-2.09,2.37-4.37,3.09-6.78
			c2.18-0.62,4.55-0.83,7-0.49c7.42,1.01,13.32,6.98,14.15,14.28c1.12,9.85-6.71,18.19-16.52,18.19H56.3c-3.1,0-5.61,2.47-5.61,5.51
			v0c0,3.04,2.52,5.51,5.62,5.51l31.38-0.03c0.48,0.02,0.96,0.04,1.45,0.04C105.09,78,117.9,64.86,116.95,49.01z"/>
	</g>
	<g>
		<path class="st0" d="M156.29,25.98c0,1.8-0.21,2.01-1.7,2.06l-5.27,0.15v2.37c0,1.24,0,2.42,0.83,3.19l6.25,5.77
			c0.83,0.72,0.93,1.39,0.26,1.96l-3.82,3.76c-0.77,0.77-1.34,0.62-2.12-0.05l-5.78-5.2l-5.73,5.72c-0.67,0.67-1.39,0.72-2.12,0.05
			l-3.87-3.76c-0.67-0.62-0.52-1.18,0.26-1.96l6.25-6.28c0.83-0.82,0.83-1.96,0.83-3.19V28.4l-5.37,0.15
			c-1.45,0.05-1.7-0.26-1.7-2.06v-3.71c0-1.8,0.26-2.01,1.7-2.06l5.37-0.15v-1.85c0-1.8,0.52-2.32,1.96-2.32h4.85
			c1.45,0,1.96,0.52,1.96,2.32v1.65l5.27-0.15c1.5-0.05,1.7,0.26,1.7,2.06V25.98z M165.74,55.8l-19.73,0.51
			c-1.24,0.05-1.7-0.31-1.7-1.49v-4.84c0-1.18,0.46-1.49,1.7-1.49l26.8-0.51c1.6-0.05,2.01,0.51,1.96,2.32l-0.46,14.47
			c-0.05,1.8-0.46,2.32-1.96,2.32h-4.85c-1.45,0-2.01-0.52-1.96-2.32L165.74,55.8z M158.67,22.52c0-1.8,0.52-2.32,1.96-2.32h4.85
			c1.5,0,1.96,0.51,1.96,2.32v5.97l3-0.05v-6.44c0-1.8,0.52-2.32,1.96-2.32h4.85c1.5,0,1.96,0.52,1.96,2.32v20.4
			c0,1.8-0.46,2.32-1.96,2.32h-4.85c-1.45,0-1.96-0.52-1.96-2.32v-6.13l-3,0.05v6.59c0,1.8-0.46,2.32-1.96,2.32h-4.85
			c-1.45,0-1.96-0.51-1.96-2.32V22.52z"/>
		<path class="st0" d="M208.04,19.18c1.6,0,2.01,0.51,1.96,2.32l-0.72,21.06c-0.05,1.8-0.46,2.27-1.96,2.32l-20.92,0.52
			c-1.45,0.05-1.91-0.52-1.96-2.32l-0.36-21.89c0-1.18,0.46-1.49,1.7-1.49h4.8c1.24,0,1.7,0.31,1.7,1.49v3.91l9.35-0.31l0.05-4.12
			c0-1.18,0.46-1.49,1.7-1.49H208.04z M192.44,37.56l8.99-0.26l0.05-4.94l-9.09,0.31L192.44,37.56z M192.8,57.6
			c0-6.39,5.27-10.51,13.84-10.51c8.57,0,13.84,4.12,13.84,10.51c0,6.39-5.27,10.51-13.84,10.51C198.07,68.1,192.8,63.98,192.8,57.6
			z M211.91,57.6c0-2.06-1.6-3.76-5.27-3.76c-3.67,0-5.27,1.7-5.27,3.76c0,2.06,1.6,3.76,5.27,3.76
			C210.31,61.36,211.91,59.66,211.91,57.6z M213.26,22.01c0-1.8,0.52-2.32,1.96-2.32h4.85c1.5,0,1.96,0.52,1.96,2.32v6.44l3.46-0.1
			c1.24-0.05,1.7,0.31,1.7,1.49v4.84c0,1.18-0.46,1.44-1.7,1.49l-3.46,0.1v6.64c0,1.8-0.46,2.32-1.96,2.32h-4.85
			c-1.45,0-1.96-0.51-1.96-2.32V22.01z"/>
	</g>
</g>
</svg>
