<svg xmlns="http://www.w3.org/2000/svg" width="75" height="24" viewBox="0 0 75 24">
    <defs>
        <filter id="swh7q1z6za">
            <feColorMatrix in="SourceGraphic" values="0 0 0 0 0.082353 0 0 0 0 0.070588 0 0 0 0 0.070588 0 0 0 1.000000 0"/>
        </filter>
    </defs>
    <g fill="none" fill-rule="evenodd">
        <g>
            <g>
                <g fill="#00215B" filter="url(#swh7q1z6za)" transform="translate(-488 -12) translate(488 12)">
                    <path d="M15.868 12.206c-1.344-3.287-4.636-5.522-8.388-5.17-4.005.377-7.203 3.768-7.462 7.9C-.292 19.885 3.515 24 8.256 24h2.601c.919 0 1.664-.767 1.664-1.713 0-.946-.745-1.713-1.664-1.713H8.256c-2.801 0-5.056-2.406-4.923-5.32.115-2.498 2.053-4.587 4.473-4.807 2.231-.204 4.185 1.125 4.987 3.078.263.64.878 1.053 1.554 1.053 1.186 0 1.98-1.246 1.52-2.372"/>
                    <path d="M35.985 15.08c-.245-4.126-3.559-7.516-7.696-7.869-.644-.055-1.273-.033-1.882.05-.056-.415-.138-.835-.257-1.258-.762-2.729-2.929-4.895-5.668-5.662-3.717-1.039-7.204.389-9.19 3.008-.498.656-.341 1.596.331 2.073.818.58 1.95.46 2.606-.296 1.207-1.39 3.166-2.113 5.252-1.537 1.6.443 2.886 1.683 3.365 3.266.471 1.558.203 3.054-.538 4.225-.476.753-.24 1.752.487 2.268.795.564 1.896.333 2.413-.492.403-.642.72-1.343.937-2.085.662-.193 1.38-.255 2.125-.152 2.249.312 4.04 2.148 4.292 4.394.34 3.03-2.034 5.597-5.01 5.597h-9.96c-.94 0-1.702.759-1.702 1.694 0 .936.763 1.695 1.704 1.694l9.518-.01c.145.008.292.012.44.012 4.835 0 8.722-4.044 8.433-8.92"/>
                </g>
                <text fill="#151212" font-family="CookieRunOTF-Regular, CookieRunOTF" font-size="16" transform="translate(-488 -12) translate(488 12)">
                    <tspan x="44" y="18">책방</tspan>
                </text>
            </g>
        </g>
    </g>
</svg>
