<?xml version="1.0" encoding="utf-8"?>
<!-- Generator: Adobe Illustrator 25.1.0, SVG Export Plug-In . SVG Version: 6.00 Build 0)  -->
<svg version="1.1" id="Layer_1" xmlns="http://www.w3.org/2000/svg" xmlns:xlink="http://www.w3.org/1999/xlink" x="0px" y="0px"
	 viewBox="0 0 69.91 24" style="enable-background:new 0 0 69.91 24;" xml:space="preserve">
<style type="text/css">
	.st0{fill:#202020;}
</style>
<g>
	<path class="st0" d="M16.47,12.33c-1.39-3.25-4.81-5.46-8.71-5.11c-4.16,0.37-7.48,3.73-7.75,7.82C-0.3,19.93,3.65,24,8.57,24h2.7
		c0.95,0,1.73-0.76,1.73-1.69c0-0.94-0.77-1.69-1.73-1.69h-2.7c-2.91,0-5.25-2.38-5.11-5.26c0.12-2.47,2.13-4.54,4.64-4.76
		c2.32-0.2,4.34,1.11,5.18,3.05c0.27,0.63,0.91,1.04,1.61,1.04C16.13,14.68,16.95,13.44,16.47,12.33z"/>
	<path class="st0" d="M35.98,15.08c-0.25-4.13-3.61-7.52-7.81-7.87c-0.65-0.05-1.29-0.03-1.91,0.05C26.21,6.85,26.13,6.43,26.01,6
		c-0.77-2.73-2.97-4.9-5.75-5.66c-3.77-1.04-7.31,0.39-9.32,3.01c-0.5,0.66-0.35,1.6,0.34,2.07c0.83,0.58,1.98,0.46,2.64-0.3
		c1.22-1.39,3.21-2.11,5.33-1.54c1.62,0.44,2.93,1.68,3.41,3.27c0.48,1.56,0.21,3.05-0.55,4.23c-0.48,0.75-0.24,1.75,0.49,2.27
		c0.81,0.56,1.92,0.33,2.45-0.49c0.41-0.64,0.73-1.34,0.95-2.09c0.67-0.19,1.4-0.25,2.16-0.15c2.28,0.31,4.1,2.15,4.35,4.39
		c0.34,3.03-2.06,5.6-5.08,5.6h-10.1c-0.95,0-1.73,0.76-1.73,1.69v0c0,0.94,0.77,1.7,1.73,1.69l9.66-0.01
		C27.13,24,27.28,24,27.43,24C32.33,24,36.28,19.96,35.98,15.08z"/>
</g>
<g>
	<path class="st0" d="M48.09,7.99c0,0.55-0.06,0.62-0.52,0.63l-1.62,0.05V9.4c0,0.38,0,0.74,0.25,0.98l1.92,1.77
		c0.25,0.22,0.29,0.43,0.08,0.6l-1.18,1.16c-0.24,0.24-0.41,0.19-0.65-0.02l-1.78-1.6l-1.76,1.76c-0.21,0.21-0.43,0.22-0.65,0.02
		l-1.19-1.16c-0.21-0.19-0.16-0.36,0.08-0.6l1.92-1.93c0.25-0.25,0.25-0.6,0.25-0.98V8.74l-1.65,0.05
		c-0.44,0.02-0.52-0.08-0.52-0.63V7.01c0-0.55,0.08-0.62,0.52-0.63l1.65-0.05V5.76c0-0.55,0.16-0.71,0.6-0.71h1.49
		c0.44,0,0.6,0.16,0.6,0.71v0.51l1.62-0.05c0.46-0.02,0.52,0.08,0.52,0.63V7.99z M51,17.17l-6.07,0.16
		c-0.38,0.02-0.52-0.1-0.52-0.46v-1.49c0-0.36,0.14-0.46,0.52-0.46l8.25-0.16c0.49-0.02,0.62,0.16,0.6,0.71l-0.14,4.45
		c-0.02,0.55-0.14,0.71-0.6,0.71h-1.49c-0.44,0-0.62-0.16-0.6-0.71L51,17.17z M48.82,6.93c0-0.55,0.16-0.71,0.6-0.71h1.49
		c0.46,0,0.6,0.16,0.6,0.71v1.84l0.92-0.02V6.77c0-0.55,0.16-0.71,0.6-0.71h1.49c0.46,0,0.6,0.16,0.6,0.71v6.28
		c0,0.55-0.14,0.71-0.6,0.71h-1.49c-0.44,0-0.6-0.16-0.6-0.71v-1.89l-0.92,0.02v2.03c0,0.55-0.14,0.71-0.6,0.71h-1.49
		c-0.44,0-0.6-0.16-0.6-0.71V6.93z"/>
	<path class="st0" d="M64.01,5.9c0.49,0,0.62,0.16,0.6,0.71l-0.22,6.48c-0.02,0.55-0.14,0.7-0.6,0.71l-6.44,0.16
		c-0.44,0.02-0.59-0.16-0.6-0.71l-0.11-6.74c0-0.36,0.14-0.46,0.52-0.46h1.48c0.38,0,0.52,0.1,0.52,0.46v1.2l2.88-0.1l0.02-1.27
		c0-0.36,0.14-0.46,0.52-0.46H64.01z M59.21,11.56l2.76-0.08l0.02-1.52l-2.8,0.1L59.21,11.56z M59.32,17.72
		c0-1.97,1.62-3.23,4.26-3.23c2.64,0,4.26,1.27,4.26,3.23c0,1.97-1.62,3.23-4.26,3.23C60.95,20.96,59.32,19.69,59.32,17.72z
		 M65.2,17.72c0-0.63-0.49-1.16-1.62-1.16c-1.13,0-1.62,0.52-1.62,1.16c0,0.63,0.49,1.16,1.62,1.16
		C64.71,18.88,65.2,18.36,65.2,17.72z M65.62,6.77c0-0.55,0.16-0.71,0.6-0.71h1.49c0.46,0,0.6,0.16,0.6,0.71v1.98l1.06-0.03
		c0.38-0.02,0.52,0.1,0.52,0.46v1.49c0,0.36-0.14,0.44-0.52,0.46l-1.06,0.03v2.04c0,0.55-0.14,0.71-0.6,0.71h-1.49
		c-0.44,0-0.6-0.16-0.6-0.71V6.77z"/>
</g>
</svg>
