<svg xmlns="http://www.w3.org/2000/svg" xmlns:xlink="http://www.w3.org/1999/xlink" width="38" height="54" viewBox="0 0 38 54">
    <defs>
        <filter id="1rv1za6sva">
            <feColorMatrix in="SourceGraphic" values="0 0 0 0 1.000000 0 0 0 0 1.000000 0 0 0 0 1.000000 0 0 0 1.000000 0"/>
        </filter>
        <path id="8s4jiabrxb" d="M0 0.13L16.884 0.13 16.884 16 0 16z"/>
    </defs>
    <g fill="none" fill-rule="evenodd">
        <g>
            <g>
                <g filter="url(#1rv1za6sva)" transform="translate(-891 -2157) translate(891 2157)">
                    <g>
                        <g transform="translate(1) translate(0 8)">
                            <mask id="d546nkeozc" fill="#fff">
                                <use xlink:href="#8s4jiabrxb"/>
                            </mask>
                            <path fill="#00215B" d="M16.745 4.99C15.327 1.92 11.853-.165 7.894.164 3.668.514.293 3.68.019 7.538-.31 12.158 3.709 16 8.712 16h2.745c.97 0 1.756-.716 1.756-1.6 0-.883-.786-1.598-1.756-1.598H8.712c-2.955 0-5.335-2.246-5.195-4.967.121-2.332 2.167-4.281 4.72-4.488 2.355-.19 4.416 1.05 5.263 2.874.277.598.926.983 1.64.983 1.25 0 2.09-1.164 1.605-2.214" mask="url(#d546nkeozc)"/>
                        </g>
                        <path fill="#00215B" d="M36.984 15.08c-.264-4.126-3.844-7.516-8.312-7.869-.696-.055-1.375-.033-2.033.05-.06-.415-.149-.835-.277-1.258C25.54 3.274 23.2 1.108 20.24.341 16.226-.698 12.46.73 10.316 3.35c-.538.656-.37 1.596.357 2.073.883.58 2.106.46 2.814-.296 1.304-1.39 3.42-2.114 5.673-1.537 1.728.443 3.116 1.683 3.633 3.266.51 1.558.22 3.054-.58 4.225-.515.753-.26 1.752.526 2.268.859.564 2.047.333 2.606-.492.435-.642.776-1.343 1.012-2.085.715-.193 1.49-.255 2.295-.152 2.428.312 4.364 2.148 4.635 4.394.367 3.03-2.197 5.597-5.411 5.597H17.12c-1.016 0-1.839.759-1.839 1.694 0 .936.825 1.695 1.84 1.694l10.28-.01c.157.008.315.012.475.012 5.222 0 9.42-4.044 9.108-8.92" transform="translate(1)"/>
                    </g>
                </g>
                <text fill="#FFF" font-family="CookieRunOTF-Regular, CookieRunOTF" font-size="20" transform="translate(-891 -2157) translate(891 2157)">
                    <tspan x="0" y="47">책방</tspan>
                </text>
            </g>
        </g>
    </g>
</svg>
