<svg xmlns="http://www.w3.org/2000/svg" xmlns:xlink="http://www.w3.org/1999/xlink" width="59" height="79" viewBox="0 0 59 79">
    <defs>
        <path id="q0880bynob" d="M0.069 0.023L41.606 0.023 41.606 39.908 0.069 39.908z"/>
        <path id="bib5v04bkd" d="M0.163 0.028L22.975 0.028 22.975 26 0.163 26z"/>
        <filter id="tj9z3m3u1a">
            <feColorMatrix in="SourceGraphic" values="0 0 0 0 1.000000 0 0 0 0 1.000000 0 0 0 0 1.000000 0 0 0 1.000000 0"/>
        </filter>
    </defs>
    <g fill="none" fill-rule="evenodd">
        <g>
            <g filter="url(#tj9z3m3u1a)" transform="translate(-488 -5578) translate(0 5506)">
                <g>
                    <path fill="#111" d="M26.777 20.574c-2.267-5.414-7.822-9.094-14.154-8.514C5.865 12.68.468 18.265.03 25.07-.494 33.223 5.931 40 13.931 40h4.39c1.55 0 2.808-1.263 2.808-2.822 0-1.558-1.257-2.821-2.808-2.821h-4.39c-4.726 0-8.531-3.963-8.306-8.762.193-4.115 3.464-7.554 7.548-7.918 3.764-.336 7.061 1.853 8.414 5.07.445 1.055 1.482 1.734 2.623 1.734 2.001 0 3.343-2.053 2.567-3.907" transform="translate(488 72)"/>
                    <g transform="translate(488 72) translate(17)">
                        <mask id="nxezi9dhsc" fill="#fff">
                            <use xlink:href="#q0880bynob"/>
                        </mask>
                        <path fill="#111" d="M41.581 25.084c-.406-6.857-5.912-12.49-12.786-13.077-1.07-.09-2.115-.054-3.128.083-.092-.69-.23-1.387-.426-2.09-1.266-4.535-4.866-8.136-9.418-9.41C9.648-1.135 3.853 1.237.555 5.59c-.827 1.09-.567 2.652.55 3.445 1.358.964 3.24.763 4.329-.492 2.006-2.31 5.26-3.513 8.727-2.553 2.658.736 4.794 2.795 5.59 5.426.783 2.59.337 5.076-.893 7.022-.792 1.25-.4 2.911.809 3.77 1.321.937 3.15.552 4.01-.818.669-1.067 1.194-2.232 1.556-3.466 1.1-.32 2.292-.423 3.53-.252 3.736.518 6.714 3.569 7.132 7.302.563 5.037-3.38 9.302-8.326 9.302H11.022c-1.562 0-2.828 1.26-2.828 2.815 0 1.556 1.268 2.817 2.83 2.815l15.815-.016c.242.013.486.02.73.02 8.034 0 14.493-6.721 14.012-14.825" mask="url(#nxezi9dhsc)"/>
                    </g>
                    <path fill="#111" d="M17.935 54.265c0-.96.278-1.234 1.056-1.234h2.614c.806 0 1.057.274 1.057 1.234v3.183l1.612-.027v-3.43c0-.96.278-1.235 1.056-1.235h2.614c.806 0 1.056.275 1.056 1.235v10.866c0 .96-.25 1.235-1.056 1.235H25.33c-.778 0-1.056-.275-1.056-1.235V61.59l-1.612.028v3.512c0 .96-.251 1.235-1.057 1.235H18.99c-.778 0-1.056-.274-1.056-1.235V54.265zm3.809 17.726l-10.62.274c-.668.028-.918-.164-.918-.796V68.89c0-.631.25-.796.917-.796l14.43-.274c.862-.027 1.084.274 1.056 1.235l-.25 7.71c-.028.96-.25 1.235-1.056 1.235h-2.614c-.778 0-1.084-.275-1.056-1.235l.11-4.774zm-5.088-15.887c0 .96-.111 1.07-.918 1.097l-2.835.083v1.262c0 .658 0 1.29.444 1.7l3.364 3.074c.446.384.501.74.14 1.043l-2.058 2.003c-.417.411-.723.329-1.14-.028l-3.113-2.771-3.087 3.046c-.361.357-.75.384-1.14.027l-2.085-2.003c-.36-.329-.278-.631.14-1.042l3.363-3.348c.445-.44.445-1.043.445-1.701v-1.153l-2.891.083c-.78.027-.918-.138-.918-1.098v-1.976c0-.96.139-1.07.918-1.097l2.891-.082v-.988c0-.96.278-1.235 1.057-1.235h2.613c.779 0 1.057.275 1.057 1.235v.878l2.835-.082c.807-.028.918.137.918 1.097v1.976z" transform="translate(488 72)"/>
                    <g transform="translate(488 72) translate(31 53)">
                        <mask id="m3nqbg3g8e" fill="#fff">
                            <use xlink:href="#bib5v04bkd"/>
                        </mask>
                        <path fill="#111" d="M15.599 1.532c0-.957.273-1.23 1.038-1.23h2.568c.792 0 1.038.273 1.038 1.23v3.417l1.83-.055c.657-.027.902.164.902.793v2.57c0 .629-.245.765-.901.793l-1.83.054v3.527c0 .957-.247 1.23-1.039 1.23h-2.568c-.765 0-1.038-.273-1.038-1.23v-11.1zm-.71 18.89c0-1.093-.847-1.995-2.787-1.995s-2.787.902-2.787 1.996c0 1.094.847 1.995 2.787 1.995s2.787-.901 2.787-1.995zm-10.11 0c0-3.39 2.788-5.577 7.323-5.577s7.322 2.188 7.322 5.578S16.637 26 12.102 26 4.78 23.813 4.78 20.423zM4.59 9.789l4.753-.137.028-2.624-4.809.164.028 2.597zm8.25-9.76c.847 0 1.066.273 1.039 1.23l-.383 11.182c-.027.957-.246 1.203-1.038 1.23l-11.065.274c-.765.027-1.01-.274-1.038-1.23L.163 1.093c0-.629.246-.793.901-.793h2.541c.656 0 .902.164.902.793v2.078l4.945-.164L9.479.82c0-.63.246-.793.902-.793h2.458z" mask="url(#m3nqbg3g8e)"/>
                    </g>
                </g>
            </g>
        </g>
    </g>
</svg>
