<?xml version="1.0" encoding="utf-8"?>
<!-- Generator: Adobe Illustrator 25.1.0, SVG Export Plug-In . SVG Version: 6.00 Build 0)  -->
<svg version="1.1" id="Layer_1" xmlns="http://www.w3.org/2000/svg" xmlns:xlink="http://www.w3.org/1999/xlink" x="0px" y="0px"
	 viewBox="0 0 59 79" style="enable-background:new 0 0 59 79;" xml:space="preserve">
<style type="text/css">
	.st0{fill:#FFFFFF;}
</style>
<g>
	<g>
		<path class="st0" d="M27.02,20.47c-2.27-5.4-7.84-9.07-14.19-8.49C6.05,12.6,0.64,18.17,0.21,24.96
			c-0.53,8.13,5.92,14.89,13.93,14.89h4.4c1.55,0,2.81-1.26,2.81-2.81c0-1.55-1.26-2.81-2.81-2.81h-4.4c-4.74,0-8.55-3.95-8.33-8.74
			c0.19-4.11,3.47-7.54,7.57-7.9c3.77-0.33,7.08,1.85,8.43,5.06c0.45,1.05,1.49,1.73,2.63,1.73C26.45,24.37,27.79,22.32,27.02,20.47
			z"/>
		<path class="st0" d="M58.8,25.04c-0.4-6.85-5.88-12.48-12.72-13.07c-1.06-0.09-2.1-0.05-3.11,0.08c-0.09-0.69-0.23-1.39-0.42-2.09
			c-1.26-4.53-4.84-8.13-9.37-9.4c-6.14-1.73-11.91,0.64-15.19,4.99C17.16,6.65,17.42,8.21,18.53,9c1.35,0.96,3.22,0.76,4.31-0.49
			c2-2.31,5.23-3.51,8.68-2.55c2.64,0.74,4.77,2.79,5.56,5.42c0.78,2.59,0.34,5.07-0.89,7.02c-0.79,1.25-0.4,2.91,0.81,3.77
			c1.31,0.94,3.13,0.55,3.99-0.82c0.67-1.07,1.19-2.23,1.55-3.46c1.09-0.32,2.28-0.42,3.51-0.25c3.72,0.52,6.68,3.57,7.09,7.3
			c0.56,5.03-3.36,9.29-8.28,9.29H28.4c-1.55,0-2.81,1.26-2.81,2.81v0c0,1.55,1.26,2.81,2.82,2.81l15.73-0.02
			c0.24,0.01,0.48,0.02,0.73,0.02C52.85,39.85,59.28,33.14,58.8,25.04z"/>
	</g>
	<g>
		<path class="st0" d="M16.87,56.73c0,0.95-0.11,1.06-0.91,1.09l-2.81,0.08v1.25c0,0.65,0,1.28,0.44,1.69l3.33,3.05
			c0.44,0.38,0.5,0.73,0.14,1.03l-2.04,1.99c-0.41,0.41-0.72,0.33-1.13-0.03l-3.08-2.75l-3.05,3.02c-0.36,0.35-0.74,0.38-1.13,0.03
			L4.58,65.2c-0.36-0.33-0.28-0.63,0.14-1.03l3.33-3.32c0.44-0.44,0.44-1.03,0.44-1.69v-1.14l-2.86,0.08
			c-0.77,0.03-0.91-0.14-0.91-1.09v-1.96c0-0.95,0.14-1.06,0.91-1.09l2.86-0.08V52.9c0-0.95,0.28-1.22,1.05-1.22h2.59
			c0.77,0,1.05,0.27,1.05,1.22v0.87l2.81-0.08c0.8-0.03,0.91,0.14,0.91,1.09V56.73z M21.91,72.49L11.4,72.77
			c-0.66,0.03-0.91-0.16-0.91-0.79v-2.56c0-0.63,0.25-0.79,0.91-0.79l14.28-0.27c0.85-0.03,1.07,0.27,1.05,1.22l-0.25,7.65
			c-0.03,0.95-0.25,1.22-1.05,1.22h-2.59c-0.77,0-1.07-0.27-1.05-1.22L21.91,72.49z M18.14,54.91c0-0.95,0.28-1.22,1.05-1.22h2.59
			c0.8,0,1.05,0.27,1.05,1.22v3.16l1.6-0.03v-3.4c0-0.95,0.28-1.22,1.05-1.22h2.59c0.8,0,1.05,0.27,1.05,1.22v10.78
			c0,0.95-0.25,1.22-1.05,1.22h-2.59c-0.77,0-1.05-0.27-1.05-1.22v-3.24l-1.6,0.03v3.48c0,0.95-0.25,1.22-1.05,1.22h-2.59
			c-0.77,0-1.05-0.27-1.05-1.22V54.91z"/>
		<path class="st0" d="M44.44,53.14c0.85,0,1.07,0.27,1.05,1.22L45.1,65.5c-0.03,0.95-0.25,1.2-1.05,1.22L32.91,67
			c-0.77,0.03-1.02-0.27-1.05-1.22L31.68,54.2c0-0.63,0.25-0.79,0.91-0.79h2.56c0.66,0,0.91,0.16,0.91,0.79v2.07l4.98-0.16
			l0.03-2.18c0-0.63,0.25-0.79,0.91-0.79H44.44z M36.13,62.86l4.79-0.14l0.03-2.61l-4.84,0.16L36.13,62.86z M36.33,73.45
			c0-3.38,2.81-5.55,7.37-5.55c4.57,0,7.37,2.18,7.37,5.55c0,3.38-2.81,5.55-7.37,5.55C39.13,79,36.33,76.82,36.33,73.45z
			 M46.51,73.45c0-1.09-0.85-1.99-2.81-1.99s-2.81,0.9-2.81,1.99c0,1.09,0.85,1.99,2.81,1.99S46.51,74.54,46.51,73.45z M47.22,54.64
			c0-0.95,0.28-1.22,1.05-1.22h2.59c0.8,0,1.05,0.27,1.05,1.22v3.4l1.84-0.05c0.66-0.03,0.91,0.16,0.91,0.79v2.56
			c0,0.63-0.25,0.76-0.91,0.79l-1.84,0.05v3.51c0,0.95-0.25,1.22-1.05,1.22h-2.59c-0.77,0-1.05-0.27-1.05-1.22V54.64z"/>
	</g>
</g>
</svg>
