<?xml version="1.0" encoding="utf-8"?>
<!-- Generator: Adobe Illustrator 25.1.0, SVG Export Plug-In . SVG Version: 6.00 Build 0)  -->
<svg version="1.1" id="Layer_1" xmlns="http://www.w3.org/2000/svg" xmlns:xlink="http://www.w3.org/1999/xlink" x="0px" y="0px"
	 viewBox="0 0 227.2 78" style="enable-background:new 0 0 227.2 78;" xml:space="preserve">
<style type="text/css">
	.st0{fill:#FFFFFF;}
</style>
<g>
	<g>
		<path class="st0" d="M53.5,40.1C49,29.5,37.9,22.3,25.2,23.5C11.7,24.7,0.9,35.6,0.1,48.8C-1,64.8,11.9,78,27.9,78h8.8
			c3.1,0,5.6-2.5,5.6-5.5S39.7,67,36.6,67h-8.8c-9.5,0-17.1-7.7-16.6-17.1c0.4-8,6.9-14.8,15.1-15.5c7.5-0.7,14.1,3.6,16.8,9.9
			c0.9,2.1,3,3.4,5.2,3.4C52.4,47.7,55.1,43.7,53.5,40.1z"/>
		<path class="st0" d="M116.9,49c-0.8-13.4-11.7-24.4-25.4-25.6c-2.1-0.2-4.2-0.1-6.2,0.2c-0.2-1.4-0.5-2.7-0.8-4.1
			C82,10.6,74.9,3.6,65.8,1.1c-12.3-3.4-23.8,1.3-30.3,9.8c-1.6,2.1-1.1,5.2,1.1,6.7c2.7,1.9,6.4,1.5,8.6-1c4-4.5,10.4-6.9,17.3-5
			c5.3,1.4,9.5,5.5,11.1,10.6c1.6,5.1,0.7,9.9-1.8,13.7c-1.6,2.5-0.8,5.7,1.6,7.4c2.6,1.8,6.2,1.1,8-1.6c1.3-2.1,2.4-4.4,3.1-6.8
			c2.2-0.6,4.6-0.8,7-0.5c7.4,1,13.3,7,14.2,14.3c1.1,9.9-6.7,18.2-16.5,18.2H56.3c-3.1,0-5.6,2.5-5.6,5.5l0,0c0,3,2.5,5.5,5.6,5.5
			l31.4,0c0.5,0,1,0,1.4,0C105.1,78,117.9,64.9,116.9,49z"/>
	</g>
	<g>
		<path class="st0" d="M156.3,26c0,1.8-0.2,2-1.7,2.1l-5.3,0.1v2.4c0,1.2,0,2.4,0.8,3.2l6.2,5.8c0.8,0.7,0.9,1.4,0.3,2l-3.8,3.8
			c-0.8,0.8-1.3,0.6-2.1,0l-5.8-5.2l-5.7,5.7c-0.7,0.7-1.4,0.7-2.1,0l-3.9-3.8c-0.7-0.6-0.5-1.2,0.3-2l6.2-6.3
			c0.8-0.8,0.8-2,0.8-3.2v-2.2l-5.4,0.1c-1.4,0-1.7-0.3-1.7-2.1v-3.7c0-1.8,0.3-2,1.7-2.1l5.4-0.1v-1.9c0-1.8,0.5-2.3,2-2.3h4.9
			c1.4,0,2,0.5,2,2.3v1.6l5.3-0.1c1.5,0,1.7,0.3,1.7,2.1L156.3,26L156.3,26z M165.7,55.8L146,56.3c-1.2,0-1.7-0.3-1.7-1.5V50
			c0-1.2,0.5-1.5,1.7-1.5l26.8-0.5c1.6,0,2,0.5,2,2.3l-0.5,14.5c-0.1,1.8-0.5,2.3-2,2.3h-4.9c-1.4,0-2-0.5-2-2.3L165.7,55.8z
			 M158.7,22.5c0-1.8,0.5-2.3,2-2.3h4.9c1.5,0,2,0.5,2,2.3v6l3,0V22c0-1.8,0.5-2.3,2-2.3h4.9c1.5,0,2,0.5,2,2.3v20.4
			c0,1.8-0.5,2.3-2,2.3h-4.9c-1.4,0-2-0.5-2-2.3v-6.1l-3,0v6.6c0,1.8-0.5,2.3-2,2.3h-4.9c-1.4,0-2-0.5-2-2.3V22.5z"/>
		<path class="st0" d="M208,19.2c1.6,0,2,0.5,2,2.3l-0.7,21.1c-0.1,1.8-0.5,2.3-2,2.3l-20.9,0.5c-1.4,0-1.9-0.5-2-2.3l-0.4-21.9
			c0-1.2,0.5-1.5,1.7-1.5h4.8c1.2,0,1.7,0.3,1.7,1.5v3.9l9.4-0.3l0.1-4.1c0-1.2,0.5-1.5,1.7-1.5C203.4,19.2,208,19.2,208,19.2z
			 M192.4,37.6l9-0.3l0.1-4.9l-9.1,0.3L192.4,37.6z M192.8,57.6c0-6.4,5.3-10.5,13.8-10.5s13.8,4.1,13.8,10.5s-5.3,10.5-13.8,10.5
			C198.1,68.1,192.8,64,192.8,57.6z M211.9,57.6c0-2.1-1.6-3.8-5.3-3.8s-5.3,1.7-5.3,3.8c0,2.1,1.6,3.8,5.3,3.8
			C210.3,61.4,211.9,59.7,211.9,57.6z M213.3,22c0-1.8,0.5-2.3,2-2.3h4.9c1.5,0,2,0.5,2,2.3v6.4l3.5-0.1c1.2,0,1.7,0.3,1.7,1.5v4.8
			c0,1.2-0.5,1.4-1.7,1.5l-3.5,0.1v6.6c0,1.8-0.5,2.3-2,2.3h-4.9c-1.4,0-2-0.5-2-2.3V22z"/>
	</g>
</g>
</svg>
