<?xml version="1.0" encoding="utf-8"?>
<!-- Generator: Adobe Illustrator 25.1.0, SVG Export Plug-In . SVG Version: 6.00 Build 0)  -->
<svg version="1.1" id="Layer_1" xmlns="http://www.w3.org/2000/svg" xmlns:xlink="http://www.w3.org/1999/xlink" x="0px" y="0px"
	 viewBox="0 0 12 8" style="enable-background:new 0 0 12 8;" xml:space="preserve">
<style type="text/css">
	.st0{fill:#2B79FE;}
</style>
<g>
	<path class="st0" d="M5.49,4.11c-0.46-1.08-1.6-1.82-2.9-1.7C1.2,2.53,0.1,3.65,0.01,5.01C-0.1,6.64,1.22,8,2.86,8h0.9
		c0.32,0,0.58-0.25,0.58-0.56c0-0.31-0.26-0.56-0.58-0.56h-0.9c-0.97,0-1.75-0.79-1.7-1.75C1.19,4.29,1.86,3.6,2.7,3.53
		C3.47,3.46,4.15,3.9,4.43,4.55c0.09,0.21,0.3,0.35,0.54,0.35C5.38,4.89,5.65,4.48,5.49,4.11z"/>
	<path class="st0" d="M11.99,5.03c-0.08-1.38-1.2-2.51-2.6-2.62C9.17,2.39,8.96,2.39,8.76,2.42C8.74,2.28,8.71,2.14,8.67,2
		C8.41,1.09,7.68,0.37,6.75,0.11c-1.26-0.35-2.44,0.13-3.11,1C3.48,1.34,3.53,1.65,3.76,1.81C4.03,2,4.42,1.96,4.64,1.71
		C5.05,1.25,5.71,1,6.41,1.2c0.54,0.15,0.98,0.56,1.14,1.09C7.71,2.8,7.62,3.3,7.37,3.69C7.21,3.94,7.29,4.28,7.53,4.45
		C7.8,4.64,8.18,4.56,8.35,4.29c0.14-0.21,0.24-0.45,0.32-0.7c0.22-0.06,0.47-0.08,0.72-0.05c0.76,0.1,1.37,0.72,1.45,1.46
		c0.11,1.01-0.69,1.87-1.69,1.87H5.77c-0.32,0-0.58,0.25-0.58,0.56v0C5.2,7.75,5.46,8,5.78,8l3.22,0c0.05,0,0.1,0,0.15,0
		C10.78,8,12.09,6.65,11.99,5.03z"/>
</g>
</svg>
